<svg width="91" height="13" viewBox="0 0 91 13" fill="none" xmlns="http://www.w3.org/2000/svg">
<path d="M3.828 10.228C3.26 10.228 2.764 10.136 2.34 9.952C1.924 9.76 1.576 9.504 1.296 9.184C1.016 8.864 0.808 8.504 0.672 8.104C0.536 7.696 0.468 7.276 0.468 6.844V6.616C0.468 6.168 0.54 5.74 0.684 5.332C0.828 4.916 1.04 4.548 1.32 4.228C1.6 3.908 1.948 3.656 2.364 3.472C2.788 3.288 3.272 3.196 3.816 3.196C4.408 3.196 4.932 3.312 5.388 3.544C5.844 3.768 6.208 4.084 6.48 4.492C6.752 4.9 6.904 5.368 6.936 5.896H5.052C5.02 5.6 4.9 5.352 4.692 5.152C4.492 4.944 4.2 4.84 3.816 4.84C3.496 4.84 3.228 4.92 3.012 5.08C2.804 5.24 2.648 5.46 2.544 5.74C2.44 6.02 2.388 6.352 2.388 6.736C2.388 7.088 2.436 7.408 2.532 7.696C2.628 7.976 2.78 8.196 2.988 8.356C3.204 8.508 3.484 8.584 3.828 8.584C4.084 8.584 4.3 8.54 4.476 8.452C4.66 8.356 4.804 8.228 4.908 8.068C5.02 7.9 5.088 7.708 5.112 7.492H6.984C6.96 8.036 6.808 8.516 6.528 8.932C6.248 9.34 5.876 9.66 5.412 9.892C4.948 10.116 4.42 10.228 3.828 10.228ZM12.1839 10V8.056H11.8599V5.944C11.8599 5.608 11.7799 5.356 11.6199 5.188C11.4599 5.02 11.2039 4.936 10.8519 4.936C10.6759 4.936 10.4439 4.94 10.1559 4.948C9.86794 4.956 9.57194 4.968 9.26794 4.984C8.96394 5 8.68794 5.016 8.43994 5.032V3.412C8.62394 3.396 8.83994 3.38 9.08794 3.364C9.33594 3.348 9.59194 3.336 9.85594 3.328C10.1199 3.32 10.3679 3.316 10.5999 3.316C11.2719 3.316 11.8359 3.412 12.2919 3.604C12.7559 3.796 13.1079 4.088 13.3479 4.48C13.5879 4.864 13.7079 5.36 13.7079 5.968V10H12.1839ZM10.0839 10.168C9.61194 10.168 9.19594 10.084 8.83594 9.916C8.48394 9.748 8.20794 9.508 8.00794 9.196C7.80794 8.876 7.70794 8.496 7.70794 8.056C7.70794 7.576 7.83194 7.184 8.07994 6.88C8.32794 6.568 8.67594 6.34 9.12394 6.196C9.57194 6.044 10.0879 5.968 10.6719 5.968H12.0759V7.036H10.6599C10.3239 7.036 10.0639 7.12 9.87994 7.288C9.70394 7.448 9.61594 7.668 9.61594 7.948C9.61594 8.212 9.70394 8.428 9.87994 8.596C10.0639 8.756 10.3239 8.836 10.6599 8.836C10.8759 8.836 11.0679 8.8 11.2359 8.728C11.4119 8.648 11.5559 8.516 11.6679 8.332C11.7799 8.148 11.8439 7.892 11.8599 7.564L12.3159 8.044C12.2759 8.5 12.1639 8.884 11.9799 9.196C11.8039 9.508 11.5559 9.748 11.2359 9.916C10.9239 10.084 10.5399 10.168 10.0839 10.168ZM15.6489 10V3.424H17.5689V10H15.6489ZM14.7729 4.84V3.424H17.5689V4.84H14.7729ZM16.3929 2.776C16.0329 2.776 15.7649 2.684 15.5889 2.5C15.4209 2.308 15.3369 2.068 15.3369 1.78C15.3369 1.484 15.4209 1.244 15.5889 1.06C15.7649 0.867999 16.0329 0.771999 16.3929 0.771999C16.7529 0.771999 17.0169 0.867999 17.1849 1.06C17.3609 1.244 17.4489 1.484 17.4489 1.78C17.4489 2.068 17.3609 2.308 17.1849 2.5C17.0169 2.684 16.7529 2.776 16.3929 2.776ZM22.5488 10.228C21.9728 10.228 21.4608 10.14 21.0128 9.964C20.5648 9.78 20.1848 9.532 19.8728 9.22C19.5688 8.908 19.3368 8.552 19.1768 8.152C19.0168 7.744 18.9368 7.316 18.9368 6.868V6.592C18.9368 6.136 19.0168 5.704 19.1768 5.296C19.3448 4.88 19.5848 4.516 19.8968 4.204C20.2168 3.892 20.6008 3.648 21.0488 3.472C21.4968 3.288 21.9968 3.196 22.5488 3.196C23.1168 3.196 23.6208 3.288 24.0608 3.472C24.5088 3.648 24.8888 3.892 25.2008 4.204C25.5128 4.516 25.7528 4.88 25.9208 5.296C26.0888 5.704 26.1728 6.136 26.1728 6.592V6.868C26.1728 7.316 26.0928 7.744 25.9328 8.152C25.7728 8.552 25.5368 8.908 25.2248 9.22C24.9208 9.532 24.5448 9.78 24.0968 9.964C23.6488 10.14 23.1328 10.228 22.5488 10.228ZM22.5488 8.608C22.9248 8.608 23.2368 8.528 23.4848 8.368C23.7328 8.208 23.9208 7.984 24.0488 7.696C24.1848 7.408 24.2528 7.088 24.2528 6.736C24.2528 6.36 24.1848 6.032 24.0488 5.752C23.9128 5.464 23.7168 5.236 23.4608 5.068C23.2128 4.9 22.9088 4.816 22.5488 4.816C22.1968 4.816 21.8928 4.9 21.6367 5.068C21.3808 5.236 21.1848 5.464 21.0488 5.752C20.9208 6.032 20.8568 6.36 20.8568 6.736C20.8568 7.088 20.9208 7.408 21.0488 7.696C21.1768 7.984 21.3688 8.208 21.6248 8.368C21.8808 8.528 22.1888 8.608 22.5488 8.608ZM30.5312 10V3.652H31.2512V6.304H31.1792C31.1792 5.376 31.3832 4.692 31.7912 4.252C32.1992 3.804 32.8392 3.58 33.7112 3.58H33.9152V4.396H33.5432C32.8552 4.396 32.3312 4.576 31.9712 4.936C31.6112 5.288 31.4312 5.808 31.4312 6.496V10H30.5312ZM38.133 10.204C37.589 10.204 37.109 10.112 36.693 9.928C36.285 9.736 35.937 9.484 35.649 9.172C35.369 8.852 35.153 8.496 35.001 8.104C34.857 7.712 34.785 7.312 34.785 6.904V6.736C34.785 6.328 34.861 5.928 35.013 5.536C35.165 5.136 35.385 4.78 35.673 4.468C35.961 4.156 36.309 3.908 36.717 3.724C37.133 3.532 37.605 3.436 38.133 3.436C38.669 3.436 39.141 3.532 39.549 3.724C39.965 3.908 40.317 4.156 40.605 4.468C40.893 4.78 41.109 5.136 41.253 5.536C41.405 5.928 41.481 6.328 41.481 6.736V6.904C41.481 7.312 41.409 7.712 41.265 8.104C41.121 8.496 40.905 8.852 40.617 9.172C40.337 9.484 39.989 9.736 39.573 9.928C39.157 10.112 38.677 10.204 38.133 10.204ZM38.133 9.4C38.661 9.4 39.105 9.284 39.465 9.052C39.833 8.812 40.113 8.5 40.305 8.116C40.497 7.724 40.593 7.292 40.593 6.82C40.593 6.34 40.493 5.908 40.293 5.524C40.101 5.132 39.821 4.824 39.453 4.6C39.085 4.368 38.645 4.252 38.133 4.252C37.629 4.252 37.193 4.368 36.825 4.6C36.457 4.824 36.173 5.132 35.973 5.524C35.781 5.908 35.685 6.34 35.685 6.82C35.685 7.292 35.781 7.724 35.973 8.116C36.165 8.5 36.441 8.812 36.801 9.052C37.169 9.284 37.613 9.4 38.133 9.4ZM45.9203 10.204C45.4563 10.204 45.0323 10.12 44.6483 9.952C44.2723 9.776 43.9443 9.536 43.6643 9.232C43.3923 8.92 43.1803 8.568 43.0283 8.176C42.8843 7.776 42.8123 7.352 42.8123 6.904V6.736C42.8123 6.304 42.8843 5.892 43.0283 5.5C43.1723 5.1 43.3763 4.748 43.6403 4.444C43.9123 4.132 44.2363 3.888 44.6123 3.712C44.9963 3.528 45.4243 3.436 45.8963 3.436C46.4323 3.436 46.9043 3.552 47.3123 3.784C47.7203 4.016 48.0483 4.352 48.2963 4.792C48.5443 5.224 48.6763 5.756 48.6923 6.388L48.2963 5.644V1.24H49.1963V10H48.4763V7.18H48.7643C48.7483 7.844 48.6083 8.404 48.3443 8.86C48.0883 9.308 47.7483 9.644 47.3243 9.868C46.9083 10.092 46.4403 10.204 45.9203 10.204ZM46.0403 9.412C46.4723 9.412 46.8603 9.316 47.2043 9.124C47.5563 8.932 47.8323 8.66 48.0323 8.308C48.2323 7.948 48.3323 7.536 48.3323 7.072V6.496C48.3323 6.048 48.2323 5.656 48.0323 5.32C47.8323 4.976 47.5563 4.708 47.2043 4.516C46.8603 4.324 46.4683 4.228 46.0283 4.228C45.5563 4.228 45.1443 4.344 44.7923 4.576C44.4483 4.8 44.1803 5.108 43.9883 5.5C43.8043 5.892 43.7123 6.332 43.7123 6.82C43.7123 7.324 43.8083 7.772 44.0003 8.164C44.1923 8.556 44.4643 8.864 44.8163 9.088C45.1683 9.304 45.5763 9.412 46.0403 9.412ZM51.5195 10V3.652H52.2395V6.304H52.1675C52.1675 5.376 52.3715 4.692 52.7795 4.252C53.1875 3.804 53.8275 3.58 54.6995 3.58H54.9035V4.396H54.5315C53.8435 4.396 53.3195 4.576 52.9595 4.936C52.5995 5.288 52.4195 5.808 52.4195 6.496V10H51.5195ZM56.6953 10V3.652H57.5833V10H56.6953ZM55.6753 4.372V3.652H57.5833V4.372H55.6753ZM56.8873 2.476C56.6713 2.476 56.5073 2.42 56.3953 2.308C56.2913 2.188 56.2393 2.04 56.2393 1.864C56.2393 1.688 56.2913 1.544 56.3953 1.432C56.5073 1.312 56.6713 1.252 56.8873 1.252C57.1033 1.252 57.2633 1.312 57.3673 1.432C57.4713 1.544 57.5233 1.688 57.5233 1.864C57.5233 2.04 57.4713 2.188 57.3673 2.308C57.2633 2.42 57.1033 2.476 56.8873 2.476ZM62.3693 12.484C62.0733 12.484 61.7733 12.468 61.4693 12.436C61.1733 12.412 60.8893 12.38 60.6173 12.34V11.572C60.9053 11.612 61.2053 11.644 61.5173 11.668C61.8373 11.7 62.1373 11.716 62.4173 11.716C63.0253 11.716 63.5093 11.636 63.8693 11.476C64.2293 11.316 64.4853 11.06 64.6373 10.708C64.7973 10.364 64.8773 9.908 64.8773 9.34V8.068L65.2133 7.18C65.1973 7.788 65.0693 8.312 64.8293 8.752C64.5893 9.184 64.2653 9.516 63.8573 9.748C63.4493 9.98 62.9853 10.096 62.4653 10.096C62.0093 10.096 61.5933 10.008 61.2173 9.832C60.8493 9.656 60.5333 9.416 60.2693 9.112C60.0053 8.8 59.8013 8.448 59.6573 8.056C59.5133 7.664 59.4413 7.252 59.4413 6.82V6.652C59.4413 6.228 59.5133 5.824 59.6573 5.44C59.8013 5.048 60.0053 4.704 60.2693 4.408C60.5333 4.104 60.8533 3.868 61.2293 3.7C61.6133 3.524 62.0373 3.436 62.5013 3.436C63.0613 3.436 63.5493 3.56 63.9653 3.808C64.3813 4.056 64.7053 4.4 64.9373 4.84C65.1773 5.28 65.3053 5.796 65.3213 6.388L65.0333 6.232V3.652H65.7413V9.304C65.7413 10.064 65.6293 10.676 65.4053 11.14C65.1813 11.604 64.8213 11.944 64.3253 12.16C63.8373 12.376 63.1853 12.484 62.3693 12.484ZM62.6213 9.268C63.0533 9.268 63.4373 9.176 63.7733 8.992C64.1173 8.8 64.3893 8.532 64.5893 8.188C64.7893 7.844 64.8893 7.444 64.8893 6.988V6.4C64.8893 5.96 64.7853 5.576 64.5773 5.248C64.3773 4.92 64.1093 4.664 63.7733 4.48C63.4373 4.296 63.0533 4.204 62.6213 4.204C62.1573 4.204 61.7533 4.316 61.4093 4.54C61.0653 4.764 60.8013 5.068 60.6173 5.452C60.4333 5.828 60.3413 6.256 60.3413 6.736C60.3413 7.224 60.4333 7.66 60.6173 8.044C60.8093 8.428 61.0773 8.728 61.4213 8.944C61.7653 9.16 62.1653 9.268 62.6213 9.268ZM70.192 10.18C69.432 10.18 68.852 9.936 68.452 9.448C68.052 8.952 67.852 8.264 67.852 7.384V3.64H68.74V7.564C68.74 8.116 68.884 8.556 69.172 8.884C69.468 9.204 69.876 9.364 70.396 9.364C70.94 9.364 71.372 9.192 71.692 8.848C72.02 8.504 72.184 8.044 72.184 7.468V3.64H73.084V10H72.364V7.348H72.508C72.508 7.94 72.424 8.448 72.256 8.872C72.088 9.288 71.836 9.612 71.5 9.844C71.164 10.068 70.74 10.18 70.228 10.18H70.192ZM78.0894 10.204C77.5454 10.204 77.0734 10.112 76.6734 9.928C76.2734 9.736 75.9454 9.484 75.6894 9.172C75.4334 8.852 75.2414 8.496 75.1134 8.104C74.9934 7.712 74.9334 7.308 74.9334 6.892V6.724C74.9334 6.316 74.9934 5.916 75.1134 5.524C75.2414 5.132 75.4334 4.78 75.6894 4.468C75.9454 4.156 76.2654 3.908 76.6494 3.724C77.0414 3.532 77.4974 3.436 78.0174 3.436C78.6814 3.436 79.2334 3.584 79.6734 3.88C80.1214 4.176 80.4574 4.556 80.6814 5.02C80.9054 5.476 81.0174 5.968 81.0174 6.496V6.964H75.3414V6.268H80.3934L80.1654 6.616C80.1654 6.144 80.0814 5.732 79.9134 5.38C79.7534 5.02 79.5134 4.74 79.1934 4.54C78.8814 4.332 78.4894 4.228 78.0174 4.228C77.5214 4.228 77.1094 4.344 76.7814 4.576C76.4534 4.808 76.2054 5.116 76.0374 5.5C75.8774 5.884 75.7974 6.32 75.7974 6.808C75.7974 7.288 75.8774 7.728 76.0374 8.128C76.2054 8.52 76.4574 8.832 76.7934 9.064C77.1374 9.296 77.5694 9.412 78.0894 9.412C78.6414 9.412 79.0894 9.288 79.4334 9.04C79.7774 8.784 79.9894 8.484 80.0694 8.14H80.9094C80.8294 8.564 80.6614 8.932 80.4054 9.244C80.1494 9.548 79.8254 9.784 79.4334 9.952C79.0414 10.12 78.5934 10.204 78.0894 10.204ZM84.7539 10.18C83.9379 10.18 83.3099 10.004 82.8699 9.652C82.4299 9.292 82.2059 8.812 82.1979 8.212H83.0379C83.0539 8.516 83.1899 8.792 83.4459 9.04C83.7099 9.288 84.1459 9.412 84.7539 9.412C85.3219 9.412 85.7459 9.296 86.0259 9.064C86.3139 8.824 86.4579 8.536 86.4579 8.2C86.4579 7.888 86.3379 7.648 86.0979 7.48C85.8659 7.304 85.5259 7.192 85.0779 7.144L84.3579 7.072C83.7819 7.008 83.3139 6.832 82.9539 6.544C82.6019 6.248 82.4259 5.844 82.4259 5.332C82.4259 4.956 82.5219 4.628 82.7139 4.348C82.9059 4.068 83.1739 3.852 83.5179 3.7C83.8699 3.54 84.2819 3.46 84.7539 3.46C85.4339 3.46 85.9859 3.62 86.4099 3.94C86.8419 4.26 87.0619 4.716 87.0699 5.308H86.2299C86.2219 5.004 86.0939 4.748 85.8459 4.54C85.5979 4.332 85.2339 4.228 84.7539 4.228C84.2579 4.228 83.8859 4.336 83.6379 4.552C83.3979 4.768 83.2779 5.032 83.2779 5.344C83.2779 5.608 83.3699 5.828 83.5539 6.004C83.7379 6.172 84.0259 6.276 84.4179 6.316L85.1379 6.388C85.7779 6.46 86.2979 6.644 86.6979 6.94C87.1059 7.236 87.3099 7.66 87.3099 8.212C87.3099 8.588 87.2019 8.928 86.9859 9.232C86.7779 9.528 86.4819 9.76 86.0979 9.928C85.7139 10.096 85.2659 10.18 84.7539 10.18Z" fill="white"/>
<path d="M88.8135 10V8.536H90.2055V10H88.8135Z" fill="#F13024"/>
</svg>
